<svg width="22" height="22" viewBox="0 0 22 22" fill="none" xmlns="http://www.w3.org/2000/svg">
<path d="M12 10.9994H21M21 10.9994L17.667 6.46758M21 10.9994L17.667 15.5313M13 5.33461V3.26582C13 2.95241 12.9426 2.64241 12.8314 2.35542C12.7203 2.06843 12.5578 1.81068 12.3542 1.59847C12.1507 1.38626 11.9104 1.2242 11.6488 1.12253C11.3871 1.02087 11.1097 0.981806 10.834 1.00782L2.834 1.76237C2.33405 1.80955 1.86801 2.06788 1.5283 2.48612C1.18859 2.90437 1.00002 3.45199 1 4.02037V17.9785C1.00002 18.5469 1.18859 19.0945 1.5283 19.5127C1.86801 19.931 2.33405 20.1893 2.834 20.2365L10.834 20.9922C11.1098 21.0182 11.3873 20.9791 11.649 20.8774C11.9107 20.7756 12.151 20.6135 12.3546 20.4011C12.5582 20.1888 12.7206 19.9309 12.8317 19.6438C12.9428 19.3567 13.0001 19.0466 13 18.733V16.6643" stroke="#9555FF" stroke-width="2" stroke-linecap="round" stroke-linejoin="round"/>
</svg>
